<svg width="50" height="50" xmlns="http://www.w3.org/2000/svg">
  <g stroke="null" id="surface1">
   <path fill="#999999" stroke="null" id="svg_1" d="m21,3c-9.37891,0 -17,7.62109 -17,17c0,9.37891 7.62109,17 17,17c3.71094,0 7.14063,-1.19531 9.9375,-3.21875l13.15625,13.125l2.8125,-2.8125l-13,-13.03125c2.55469,-2.97656 4.09375,-6.83984 4.09375,-11.0625c0,-9.37891 -7.62109,-17 -17,-17zm0,2c8.29688,0 15,6.70313 15,15c0,8.29688 -6.70312,15 -15,15c-8.29687,0 -15,-6.70312 -15,-15c0,-8.29687 6.70313,-15 15,-15z"/>
  </g>
</svg>